#Comment line ignore any data following # character 
#Hierarchical Translation and Rotation (.htr) file 
[Header]	
#Header keywords are followed by a single value 
FileType HTR		#Single word string
DataType HTRS		#Translation followed by rotation and scale data
FileVersion 1		#integer
NumSegments 84		#integer
NumFrames 2		#integer
DataFrameRate 30		#integer, data frame rate in this file
EulerRotationOrder ZYX
CalibrationUnits mm
RotationUnits Degrees
GlobalAxisofGravity Y
BoneLengthAxis Y
ScaleFactor 1.00
[SegmentNames&Hierarchy]
#CHILD	PARENT
MASTER GLOBAL
root MASTER
chest root
L_mid_tent01 root
R_mid_tent01 root
spine01 root
Bip01_Neck chest
L_humerus chest
R_humerus chest
weapon_bone chest
Bip01_Head Bip01_Neck
eye_left_bone Bip01_Head
eye_right_bone Bip01_Head
L_forearm L_humerus
L_front_hand L_forearm
L_weapon_bone L_forearm
L_front_hand01_01 L_front_hand
L_front_hand02_01 L_front_hand
L_front_hand03_01 L_front_hand
L_front_hand01_02 L_front_hand01_01
L_front_hand02_02 L_front_hand02_01
L_front_hand03_02 L_front_hand03_01
R_forearm R_humerus
R_front_hand R_forearm
R_weapon_bone R_forearm
R_front_hand01_01 R_front_hand
R_front_hand02_01 R_front_hand
R_front_hand03_01 R_front_hand
R_front_hand01_02 R_front_hand01_01
R_front_hand02_02 R_front_hand02_01
R_front_hand03_02 R_front_hand03_01
null_rope01_connect L_mid_tent01
Rope1_Seg01 null_rope01_connect
Rope1_Seg02 Rope1_Seg01
Rope1_Seg03 Rope1_Seg02
Rope1_Seg04 Rope1_Seg03
Rope1_Seg05 Rope1_Seg04
Rope1_Seg06 Rope1_Seg05
Rope1_Seg07 Rope1_Seg06
Rope1_Seg09 Rope1_Seg07
L_mid_hand01 Rope1_Seg09
L_mid_hand02 Rope1_Seg09
L_mid_hand03 Rope1_Seg09
null_rope02_connect R_mid_tent01
Rope2_Seg01 null_rope02_connect
Rope2_Seg02 Rope2_Seg01
Rope2_Seg03 Rope2_Seg02
Rope2_Seg04 Rope2_Seg03
Rope2_Seg05 Rope2_Seg04
Rope2_Seg06 Rope2_Seg05
Rope2_Seg07 Rope2_Seg06
Rope2_Seg09 Rope2_Seg07
R_mid_hand01 Rope2_Seg09
R_mid_hand02 Rope2_Seg09
R_mid_hand03 Rope2_Seg09
spine02 spine01
spine03 spine02
pelvis spine03
null_rope03_connect pelvis
null_rope04_connect pelvis
Rope3_Seg01 null_rope03_connect
Rope3_Seg02 Rope3_Seg01
Rope3_Seg03 Rope3_Seg02
Rope3_Seg04 Rope3_Seg03
Rope3_Seg05 Rope3_Seg04
Rope3_Seg06 Rope3_Seg05
Rope3_Seg07 Rope3_Seg06
Rope3_Seg08 Rope3_Seg07
Rope3_Seg09 Rope3_Seg08
R_rear_hand01 Rope3_Seg09
R_rear_hand02 Rope3_Seg09
R_rear_hand03 Rope3_Seg09
Rope4_Seg01 null_rope04_connect
Rope4_Seg02 Rope4_Seg01
Rope4_Seg03 Rope4_Seg02
Rope4_Seg04 Rope4_Seg03
Rope4_Seg05 Rope4_Seg04
Rope4_Seg06 Rope4_Seg05
Rope4_Seg07 Rope4_Seg06
Rope4_Seg08 Rope4_Seg07
Rope4_Seg09 Rope4_Seg08
L_rear_hand01 Rope4_Seg09
L_rear_hand02 Rope4_Seg09
L_rear_hand03 Rope4_Seg09
[BasePosition]
#SegmentName Tx, Ty, Tz, Rx, Ry, Rz, BoneLength
MASTER 0.000000 0.000000 0.000000 -90.000000 0.000000 0.000000 10.000000 
root 0.000000 0.000000 0.000000 0.000000 0.000000 0.000000 10.000000 
chest 0.000000 0.000000 0.000000 0.000000 0.000000 0.000000 10.000000 
L_mid_tent01 0.000000 0.000000 0.000000 0.000000 0.000000 0.000000 10.000000 
R_mid_tent01 0.000000 0.000000 0.000000 0.000000 0.000000 0.000000 10.000000 
spine01 0.000000 0.000000 0.000000 0.000000 0.000000 0.000000 10.000000 
Bip01_Neck 0.000000 0.000000 0.000000 0.000000 0.000000 0.000000 10.000000 
L_humerus 0.000000 0.000000 0.000000 0.000000 0.000000 0.000000 10.000000 
R_humerus 0.000000 0.000000 0.000000 0.000000 0.000000 0.000000 10.000000 
weapon_bone 0.000000 0.000000 0.000000 0.000000 0.000000 0.000000 10.000000 
Bip01_Head 0.000000 0.000000 0.000000 0.000000 0.000000 0.000000 10.000000 
eye_left_bone 0.000000 0.000000 0.000000 0.000000 0.000000 0.000000 10.000000 
eye_right_bone 0.000000 0.000000 0.000000 0.000000 0.000000 0.000000 10.000000 
L_forearm 0.000000 0.000000 0.000000 0.000000 0.000000 0.000000 10.000000 
L_front_hand 0.000000 0.000000 0.000000 0.000000 0.000000 0.000000 10.000000 
L_weapon_bone 0.000000 0.000000 0.000000 0.000000 0.000000 0.000000 10.000000 
L_front_hand01_01 0.000000 0.000000 0.000000 0.000000 0.000000 0.000000 10.000000 
L_front_hand02_01 0.000000 0.000000 0.000000 0.000000 0.000000 0.000000 10.000000 
L_front_hand03_01 0.000000 0.000000 0.000000 0.000000 0.000000 0.000000 10.000000 
L_front_hand01_02 0.000000 0.000000 0.000000 0.000000 0.000000 0.000000 10.000000 
L_front_hand02_02 0.000000 0.000000 0.000000 0.000000 0.000000 0.000000 10.000000 
L_front_hand03_02 0.000000 0.000000 0.000000 0.000000 0.000000 0.000000 10.000000 
R_forearm 0.000000 0.000000 0.000000 0.000000 0.000000 0.000000 10.000000 
R_front_hand 0.000000 0.000000 0.000000 0.000000 0.000000 0.000000 10.000000 
R_weapon_bone 0.000000 0.000000 0.000000 0.000000 0.000000 0.000000 10.000000 
R_front_hand01_01 0.000000 0.000000 0.000000 0.000000 0.000000 0.000000 10.000000 
R_front_hand02_01 0.000000 0.000000 0.000000 0.000000 0.000000 0.000000 10.000000 
R_front_hand03_01 0.000000 0.000000 0.000000 0.000000 0.000000 0.000000 10.000000 
R_front_hand01_02 0.000000 0.000000 0.000000 0.000000 0.000000 0.000000 10.000000 
R_front_hand02_02 0.000000 0.000000 0.000000 0.000000 0.000000 0.000000 10.000000 
R_front_hand03_02 0.000000 0.000000 0.000000 0.000000 0.000000 0.000000 10.000000 
null_rope01_connect 0.000000 0.000000 0.000000 0.000000 0.000000 0.000000 10.000000 
Rope1_Seg01 0.000000 0.000000 0.000000 0.000000 0.000000 0.000000 10.000000 
Rope1_Seg02 0.000000 0.000000 0.000000 0.000000 0.000000 0.000000 10.000000 
Rope1_Seg03 0.000000 0.000000 0.000000 0.000000 0.000000 0.000000 10.000000 
Rope1_Seg04 0.000000 0.000000 0.000000 0.000000 0.000000 0.000000 10.000000 
Rope1_Seg05 0.000000 0.000000 0.000000 0.000000 0.000000 0.000000 10.000000 
Rope1_Seg06 0.000000 0.000000 0.000000 0.000000 0.000000 0.000000 10.000000 
Rope1_Seg07 0.000000 0.000000 0.000000 0.000000 0.000000 0.000000 10.000000 
Rope1_Seg09 0.000000 0.000000 0.000000 0.000000 0.000000 0.000000 10.000000 
L_mid_hand01 0.000000 0.000000 0.000000 0.000000 0.000000 0.000000 10.000000 
L_mid_hand02 0.000000 0.000000 0.000000 0.000000 0.000000 0.000000 10.000000 
L_mid_hand03 0.000000 0.000000 0.000000 0.000000 0.000000 0.000000 10.000000 
null_rope02_connect 0.000000 0.000000 0.000000 0.000000 0.000000 0.000000 10.000000 
Rope2_Seg01 0.000000 0.000000 0.000000 0.000000 0.000000 0.000000 10.000000 
Rope2_Seg02 0.000000 0.000000 0.000000 0.000000 0.000000 0.000000 10.000000 
Rope2_Seg03 0.000000 0.000000 0.000000 0.000000 0.000000 0.000000 10.000000 
Rope2_Seg04 0.000000 0.000000 0.000000 0.000000 0.000000 0.000000 10.000000 
Rope2_Seg05 0.000000 0.000000 0.000000 0.000000 0.000000 0.000000 10.000000 
Rope2_Seg06 0.000000 0.000000 0.000000 0.000000 0.000000 0.000000 10.000000 
Rope2_Seg07 0.000000 0.000000 0.000000 0.000000 0.000000 0.000000 10.000000 
Rope2_Seg09 0.000000 0.000000 0.000000 0.000000 0.000000 0.000000 10.000000 
R_mid_hand01 0.000000 0.000000 0.000000 0.000000 0.000000 0.000000 10.000000 
R_mid_hand02 0.000000 0.000000 0.000000 0.000000 0.000000 0.000000 10.000000 
R_mid_hand03 0.000000 0.000000 0.000000 0.000000 0.000000 0.000000 10.000000 
spine02 0.000000 0.000000 0.000000 0.000000 0.000000 0.000000 10.000000 
spine03 0.000000 0.000000 0.000000 0.000000 0.000000 0.000000 10.000000 
pelvis 0.000000 0.000000 0.000000 0.000000 0.000000 0.000000 10.000000 
null_rope03_connect 0.000000 0.000000 0.000000 0.000000 0.000000 0.000000 10.000000 
null_rope04_connect 0.000000 0.000000 0.000000 0.000000 0.000000 0.000000 10.000000 
Rope3_Seg01 0.000000 0.000000 0.000000 0.000000 0.000000 0.000000 10.000000 
Rope3_Seg02 0.000000 0.000000 0.000000 0.000000 0.000000 0.000000 10.000000 
Rope3_Seg03 0.000000 0.000000 0.000000 0.000000 0.000000 0.000000 10.000000 
Rope3_Seg04 0.000000 0.000000 0.000000 0.000000 0.000000 0.000000 10.000000 
Rope3_Seg05 0.000000 0.000000 0.000000 0.000000 0.000000 0.000000 10.000000 
Rope3_Seg06 0.000000 0.000000 0.000000 0.000000 0.000000 0.000000 10.000000 
Rope3_Seg07 0.000000 0.000000 0.000000 0.000000 0.000000 0.000000 10.000000 
Rope3_Seg08 0.000000 0.000000 0.000000 0.000000 0.000000 0.000000 10.000000 
Rope3_Seg09 0.000000 0.000000 0.000000 0.000000 0.000000 0.000000 10.000000 
R_rear_hand01 0.000000 0.000000 0.000000 0.000000 0.000000 0.000000 10.000000 
R_rear_hand02 0.000000 0.000000 0.000000 0.000000 0.000000 0.000000 10.000000 
R_rear_hand03 0.000000 0.000000 0.000000 0.000000 0.000000 0.000000 10.000000 
Rope4_Seg01 0.000000 0.000000 0.000000 0.000000 0.000000 0.000000 10.000000 
Rope4_Seg02 0.000000 0.000000 0.000000 0.000000 0.000000 0.000000 10.000000 
Rope4_Seg03 0.000000 0.000000 0.000000 0.000000 0.000000 0.000000 10.000000 
Rope4_Seg04 0.000000 0.000000 0.000000 0.000000 0.000000 0.000000 10.000000 
Rope4_Seg05 0.000000 0.000000 0.000000 0.000000 0.000000 0.000000 10.000000 
Rope4_Seg06 0.000000 0.000000 0.000000 0.000000 0.000000 0.000000 10.000000 
Rope4_Seg07 0.000000 0.000000 0.000000 0.000000 0.000000 0.000000 10.000000 
Rope4_Seg08 0.000000 0.000000 0.000000 0.000000 0.000000 0.000000 10.000000 
Rope4_Seg09 0.000000 0.000000 0.000000 0.000000 0.000000 0.000000 10.000000 
L_rear_hand01 0.000000 0.000000 0.000000 0.000000 0.000000 0.000000 10.000000 
L_rear_hand02 0.000000 0.000000 0.000000 0.000000 0.000000 0.000000 10.000000 
L_rear_hand03 0.000000 0.000000 0.000000 0.000000 0.000000 0.000000 10.000000 
#Beginning of Data. Separated by tabs
#Fr	Tx	Ty	Tz	Rx	Ry	Rz	SF
[MASTER]
29 0.000000 0.000000 0.000000 0.001660 0.001660 0.001660 0.000000
30 0.000000 0.000000 0.000000 0.001660 0.001660 0.001660 0.000000
[root]
29 -16.502245 -199.343781 1093.534668 -85.747307 -61.785316 -93.080688 1111.678223
30 -16.502245 -199.343781 1093.534668 -85.747307 -61.785316 -93.080688 1111.678223
[chest]
29 -84.512650 -34.090519 0.000000 2.270103 -1.294819 -120.027504 91.129311
30 -84.512650 -34.090519 0.000000 2.265396 -1.293079 -119.990334 91.129311
[L_mid_tent01]
29 27.299500 22.177483 -249.917984 -16.881121 2.036449 131.277252 252.380859
30 27.299500 22.177483 -249.917984 -16.900745 2.001222 131.050690 252.380859
[R_mid_tent01]
29 23.228794 24.509907 226.238495 -175.073257 2.062489 120.468994 228.744751
30 23.228794 24.509907 226.238495 -175.061646 2.049026 120.311546 228.744751
[spine01]
29 -0.361383 -0.195265 0.000000 -0.000001 -0.000007 22.052340 0.410763
30 -0.361383 -0.195265 0.000000 -0.000001 -0.000007 22.052340 0.410763
[Bip01_Neck]
29 165.484543 71.581718 0.000119 175.896118 1.177290 24.871183 180.302734
30 165.484543 71.581718 0.000119 175.896118 1.177290 24.871183 180.302734
[L_humerus]
29 -13.983130 -135.272980 -120.471481 -91.668335 0.804969 -167.458282 181.680161
30 -13.983130 -135.272980 -120.471481 -91.668335 0.804969 -167.458282 181.680161
[R_humerus]
29 -13.983309 -135.273102 125.287651 103.000740 1.729733 -169.272232 184.909012
30 -13.983309 -135.273102 125.287651 103.000740 1.729733 -169.272232 184.909012
[weapon_bone]
29 235.964890 -300.705902 0.000000 0.000000 -89.951546 -128.212341 382.234833
30 235.964890 -300.705902 0.000000 0.000000 -89.951546 -128.212341 382.234833
[Bip01_Head]
29 102.819801 23.735462 5.410404 3.150732 3.423702 -20.839094 105.662460
30 102.819801 23.735460 5.410404 3.150732 3.423702 -20.839094 105.662460
[eye_left_bone]
29 -24.626970 125.451866 -64.772606 0.000000 -90.000000 -99.840431 143.318359
30 -24.626970 125.451866 -64.772606 0.000000 -90.000000 -99.840431 143.318359
[eye_right_bone]
29 -24.626970 125.451866 64.327362 0.000000 -89.960434 80.159386 143.117676
30 -24.626970 125.451866 64.327362 0.000000 -89.960434 80.159386 143.117676
[L_forearm]
29 322.776093 0.000000 -0.000119 0.000017 0.002347 -89.149834 322.776093
30 322.776093 0.000000 -0.000119 0.000017 0.002347 -89.149834 322.776093
[L_front_hand]
29 241.149185 -0.042021 -3.300071 -177.729919 -0.048909 -80.216103 241.171753
30 241.149185 -0.042021 -3.300071 -177.729645 -0.049392 -80.209053 241.171753
[L_weapon_bone]
29 156.183838 0.000000 0.000000 0.000014 0.000007 0.000001 156.183838
30 156.183838 0.000000 0.000000 0.000014 0.000007 0.000001 156.183838
[L_front_hand01_01]
29 86.095154 20.947098 -0.655860 0.405585 -0.442306 -4.620490 88.609184
30 86.095154 20.947098 -0.655860 0.405585 -0.442306 -4.620490 88.609184
[L_front_hand02_01]
29 86.935165 -11.437475 24.513514 116.959450 3.630817 1.495453 91.046425
30 86.935165 -11.437475 24.513514 116.959450 3.630817 1.495453 91.046425
[L_front_hand03_01]
29 86.637497 -14.123976 -20.424902 -118.420097 -4.656303 -0.152527 90.126129
30 86.637497 -14.123976 -20.424902 -118.420097 -4.656303 -0.152527 90.126129
[L_front_hand01_02]
29 71.020905 -0.000179 0.000030 0.000004 -0.000005 -8.379269 71.020905
30 71.020905 -0.000179 0.000030 0.000004 -0.000005 -8.379269 71.020905
[L_front_hand02_02]
29 71.020927 -0.000119 0.000060 -0.000005 -0.000004 -8.379259 71.020927
30 71.020927 -0.000119 0.000060 -0.000005 -0.000004 -8.379259 71.020927
[L_front_hand03_02]
29 71.020905 -0.000060 0.000060 0.000015 -0.000040 -8.379267 71.020905
30 71.020905 -0.000060 0.000060 0.000015 -0.000040 -8.379267 71.020905
[R_forearm]
29 322.776428 -0.000060 0.000030 0.210796 -0.039514 -80.613579 322.776428
30 322.776428 -0.000060 0.000030 0.210812 -0.039429 -80.660042 322.776428
[R_front_hand]
29 238.847015 -0.006795 2.210259 -1.672284 -0.427738 -93.084175 238.857239
30 238.847015 -0.006795 2.210259 -1.672613 -0.427211 -93.064697 238.857239
[R_weapon_bone]
29 155.664093 0.002503 -0.000030 0.003487 0.001180 -90.988930 155.664078
30 155.664093 0.002503 -0.000030 0.003487 0.001180 -90.988930 155.664078
[R_front_hand01_01]
29 87.624611 14.231146 22.918642 -116.960213 3.496675 -1.324139 91.683487
30 87.624611 14.231146 22.918642 -116.960213 3.496675 -1.324139 91.683487
[R_front_hand02_01]
29 89.356956 14.367283 -19.491137 118.419647 -4.257089 0.609827 92.579636
30 89.356956 14.367283 -19.491137 118.419647 -4.257089 0.609827 92.579636
[R_front_hand03_01]
29 87.286232 -22.307278 -0.143439 -0.387970 -0.231462 4.232001 90.091743
30 87.286232 -22.307278 -0.143439 -0.387970 -0.231462 4.232001 90.091743
[R_front_hand01_02]
29 71.020905 0.000060 0.000119 -0.000005 -0.000020 8.379271 71.020905
30 71.020905 0.000060 0.000119 -0.000005 -0.000020 8.379271 71.020905
[R_front_hand02_02]
29 71.020844 -0.000030 -0.000119 0.000000 -0.000021 8.379271 71.020836
30 71.020844 -0.000030 -0.000119 0.000000 -0.000021 8.379271 71.020836
[R_front_hand03_02]
29 71.020905 0.000000 0.000030 -0.000001 -0.000020 8.379275 71.020905
30 71.020905 0.000000 0.000030 -0.000001 -0.000020 8.379275 71.020905
[null_rope01_connect]
29 328.732483 0.000000 -0.000238 110.285873 -73.196487 -89.713394 328.732483
30 328.732483 0.000000 -0.000238 110.397079 -73.189522 -89.594437 328.732483
[Rope1_Seg01]
29 0.000000 0.000000 0.000000 76.116547 15.356040 81.170990 0.000000
30 0.000000 0.000000 0.000000 76.058846 15.864431 81.333214 0.000000
[Rope1_Seg02]
29 139.999863 -0.000179 0.000000 63.632488 -9.934623 42.189621 139.999863
30 139.999863 -0.000179 0.000000 63.201385 -10.164945 42.554565 139.999863
[Rope1_Seg03]
29 139.999924 0.000060 -0.000060 61.288250 17.449982 21.029646 139.999924
30 139.999924 0.000060 -0.000060 60.877369 17.044813 20.736174 139.999924
[Rope1_Seg04]
29 139.999924 -0.000060 -0.000119 15.473220 43.870922 -9.027786 139.999924
30 139.999924 -0.000060 -0.000119 16.256962 44.172924 -8.484363 139.999924
[Rope1_Seg05]
29 139.999832 0.000119 -0.000060 -0.277452 17.005196 -9.632265 139.999832
30 139.999832 0.000119 -0.000060 -0.263933 17.198122 -9.733515 139.999832
[Rope1_Seg06]
29 139.999954 0.000119 -0.000060 -0.376708 7.067132 -4.078221 139.999954
30 139.999954 0.000119 -0.000060 -0.380817 7.158657 -4.131047 139.999954
[Rope1_Seg07]
29 139.999985 0.000060 0.000000 -0.092387 1.727037 -0.988992 139.999985
30 139.999985 0.000060 0.000000 -0.096495 1.773151 -1.015481 139.999985
[Rope1_Seg09]
29 121.602913 0.000119 -0.000089 -89.793175 -1.359789 0.847147 121.602913
30 121.602913 0.000119 -0.000089 -89.793175 -1.359789 0.847147 121.602913
[L_mid_hand01]
29 103.859421 1.038730 8.195221 104.352036 0.341479 -0.444583 104.187431
30 103.859421 1.038730 8.195221 104.352036 0.341479 -0.444583 104.187431
[L_mid_hand02]
29 105.572853 -4.139662 -10.864139 -135.608444 3.905687 -3.381056 106.211075
30 105.572853 -4.139662 -10.864139 -135.608444 3.905687 -3.381056 106.211075
[L_mid_hand03]
29 104.641464 17.579376 -3.913581 -18.761518 -0.324361 2.942912 106.179977
30 104.641464 17.579376 -3.913581 -18.761520 -0.324361 2.942913 106.179977
[null_rope02_connect]
29 328.732849 0.000179 -0.000119 121.397514 84.597641 -89.965538 328.732849
30 328.732849 0.000179 -0.000119 121.685951 84.582825 -89.835228 328.732849
[Rope2_Seg01]
29 0.000076 0.000111 0.000153 -5.295803 50.378963 107.371780 0.000204
30 0.000076 0.000111 0.000153 -5.298678 50.445438 107.358063 0.000204
[Rope2_Seg02]
29 139.999741 -0.000060 -0.000119 -18.218954 -59.215916 -44.375320 139.999756
30 139.999741 -0.000060 -0.000119 -18.231730 -59.007755 -43.837654 139.999756
[Rope2_Seg03]
29 140.000107 0.000030 0.000000 -22.412735 -10.853031 -24.894148 140.000107
30 140.000107 0.000030 0.000000 -22.654039 -11.094816 -25.119789 140.000107
[Rope2_Seg04]
29 139.999802 0.000000 -0.000060 -20.983587 -11.908309 -34.753922 139.999802
30 139.999802 0.000000 -0.000060 -20.968794 -11.910135 -34.602390 139.999802
[Rope2_Seg05]
29 139.999985 -0.000060 0.000119 -9.990947 2.461144 -29.588287 139.999985
30 139.999985 -0.000060 0.000119 -10.090015 2.401094 -29.751389 139.999985
[Rope2_Seg06]
29 139.999893 -0.000030 -0.000119 -1.666461 3.215477 -11.723173 139.999893
30 139.999893 -0.000030 -0.000119 -1.684139 3.226281 -11.778600 139.999893
[Rope2_Seg07]
29 139.999893 0.000060 -0.000060 -0.248763 1.313683 -4.355974 139.999893
30 139.999893 0.000060 -0.000060 -0.252025 1.323396 -4.391923 139.999893
[Rope2_Seg09]
29 121.338966 0.000089 -0.000060 33.793236 -1.359788 -0.847141 121.338966
30 121.338966 0.000089 -0.000060 33.793236 -1.359788 -0.847141 121.338966
[R_mid_hand01]
29 104.680779 11.144459 -10.335981 -47.384258 2.963522 5.452604 105.778534
30 104.680779 11.144459 -10.335981 -47.384266 2.963523 5.452605 105.778534
[R_mid_hand02]
29 104.070427 2.443552 8.231699 75.626297 -2.250001 1.111093 104.424065
30 104.070427 2.443552 8.231699 75.626297 -2.250001 1.111093 104.424065
[R_mid_hand03]
29 106.028137 -11.221827 -5.996406 -164.381912 2.495983 -6.140520 106.788818
30 106.028137 -11.221827 -5.996406 -164.381927 2.495984 -6.140522 106.788818
[spine02]
29 129.756927 0.001550 0.000119 -3.655735 -2.805525 49.632202 129.756927
30 129.756927 0.001550 0.000119 -3.651974 -2.809170 49.539604 129.756927
[spine03]
29 79.115631 0.000000 -0.000119 5.798568 8.451808 54.609035 79.115631
30 79.115631 0.000000 -0.000119 5.788696 8.435355 54.539700 79.115631
[pelvis]
29 169.435242 0.051022 0.000000 -7.691615 -2.933054 14.844255 169.435257
30 169.435242 0.051022 0.000000 -7.667895 -2.928553 14.794565 169.435257
[null_rope03_connect]
29 -1.257226 -2.466202 137.391083 145.402679 -84.161781 -134.382263 137.418976
30 -1.257226 -2.466202 137.391083 145.534332 -84.180450 -134.302902 137.418976
[null_rope04_connect]
29 -1.259640 -2.480268 -137.844437 145.402679 -84.161781 -134.382263 137.872513
30 -1.259640 -2.480268 -137.844437 145.534332 -84.180450 -134.302902 137.872513
[Rope3_Seg01]
29 0.000010 0.000038 -0.000114 -168.515533 73.239250 -104.913666 0.000121
30 0.000010 0.000038 -0.000114 -168.680115 73.343887 -105.037895 0.000121
[Rope3_Seg02]
29 139.999924 -0.000119 0.000060 -11.282566 -20.048906 12.036591 139.999924
30 139.999924 -0.000119 0.000060 -11.216639 -19.971512 11.964615 139.999924
[Rope3_Seg03]
29 139.999924 -0.000119 0.000119 -21.192307 -46.710377 24.062096 139.999924
30 139.999924 -0.000119 0.000119 -21.107819 -46.603615 23.957966 139.999924
[Rope3_Seg04]
29 139.999924 0.000119 0.000000 -0.380481 -22.924707 4.298555 139.999924
30 139.999924 0.000119 0.000000 -0.395196 -22.973028 4.312173 139.999924
[Rope3_Seg05]
29 139.999924 -0.000238 0.000060 8.936331 -62.679424 16.820425 139.999924
30 139.999924 -0.000238 0.000060 8.948766 -62.540184 16.704966 139.999924
[Rope3_Seg06]
29 139.999893 -0.000119 -0.000060 11.485116 -40.243347 26.415527 139.999893
30 139.999893 -0.000119 -0.000060 11.491718 -40.424622 26.481968 139.999893
[Rope3_Seg07]
29 139.999771 0.000060 -0.000119 2.885765 -5.042325 5.877550 139.999771
30 139.999771 0.000060 -0.000119 2.891968 -5.055416 5.891034 139.999771
[Rope3_Seg08]
29 139.999985 -0.000060 0.000000 1.460975 -1.920579 2.494296 139.999985
30 139.999985 -0.000060 0.000000 1.461900 -1.922109 2.496241 139.999985
[Rope3_Seg09]
29 90.185997 -0.000179 -0.000060 89.793228 -1.359877 -0.847183 90.185997
30 90.185997 -0.000179 -0.000060 89.793228 -1.359877 -0.847183 90.185997
[R_rear_hand01]
29 103.366196 -6.073594 -10.757982 -156.049316 6.070419 -2.795869 104.101845
30 103.366196 -6.073594 -10.757982 -156.049316 6.070419 -2.795869 104.101845
[R_rear_hand02]
29 100.509819 12.039542 -7.992327 -38.708424 1.958050 5.461185 101.543350
30 100.509819 12.039542 -7.992327 -38.708435 1.958051 5.461186 101.543350
[R_rear_hand03]
29 101.539970 5.215704 5.435467 84.307625 -2.361032 4.099037 101.819031
30 101.539970 5.215704 5.435467 84.307625 -2.361032 4.099037 101.819031
[Rope4_Seg01]
29 -0.000002 0.000034 -0.000195 83.600060 76.763191 -77.337311 0.000198
30 -0.000003 0.000032 -0.000197 83.665001 76.843658 -77.302475 0.000199
[Rope4_Seg02]
29 139.999985 0.000060 0.000119 5.176719 5.915858 -15.044769 139.999985
30 139.999985 0.000060 0.000119 5.151560 5.884675 -14.990426 139.999985
[Rope4_Seg03]
29 139.999924 0.000000 -0.000238 4.745716 11.858992 -49.991882 139.999924
30 139.999924 0.000000 -0.000238 4.755591 11.832308 -49.825867 139.999924
[Rope4_Seg04]
29 139.999985 0.000000 0.000119 -2.985387 2.980545 -35.701077 139.999985
30 139.999985 0.000000 0.000119 -2.981736 2.998042 -35.808159 139.999985
[Rope4_Seg05]
29 139.999802 -0.000060 -0.000119 -9.602593 6.438851 -32.205574 139.999802
30 139.999802 -0.000060 -0.000119 -9.558698 6.418262 -32.119911 139.999802
[Rope4_Seg06]
29 139.999924 0.000000 0.000060 -21.944136 14.891644 -47.669865 139.999924
30 139.999924 0.000000 0.000060 -21.968403 14.872642 -47.747269 139.999924
[Rope4_Seg07]
29 139.999802 0.000000 0.000000 -5.523635 9.716347 -14.363084 139.999802
30 139.999802 0.000000 0.000000 -5.553264 9.747171 -14.424344 139.999802
[Rope4_Seg08]
29 139.999924 0.000000 0.000119 -2.369392 2.466308 -3.058010 139.999924
30 139.999924 0.000000 0.000119 -2.372792 2.473933 -3.068145 139.999924
[Rope4_Seg09]
29 90.185791 0.000060 0.000060 -135.617828 2.228885 0.850567 90.185791
30 90.185791 0.000060 0.000060 -135.617828 2.228885 0.850567 90.185791
[L_rear_hand01]
29 101.696655 -8.392275 -7.654577 -38.746338 0.246096 177.290207 102.329041
30 101.696655 -8.392275 -7.654577 -38.746349 0.246096 177.290207 102.329041
[L_rear_hand02]
29 102.726799 -1.568258 5.773216 84.314880 -1.139137 176.250763 102.900848
30 102.726799 -1.568258 5.773216 84.314880 -1.139137 176.250763 102.900848
[L_rear_hand03]
29 104.552910 9.721220 -10.420293 -155.747955 -4.630845 179.564758 105.519653
30 104.552910 9.721220 -10.420293 -155.747955 -4.630845 179.564758 105.519653
